<svg width="32" height="32" viewBox="0 0 32 32" fill="none" xmlns="http://www.w3.org/2000/svg">
<rect x="1" y="1" width="30" height="30" rx="5" fill="#BC54C6" fill-opacity="0.1" stroke="#D781FF" stroke-width="2"/>
<path d="M10.82 23V9H16.9C17.8333 9 18.62 9.14 19.26 9.42C19.9133 9.68667 20.4067 10.08 20.74 10.6C21.0733 11.12 21.24 11.74 21.24 12.46C21.24 13.26 21.04 13.9267 20.64 14.46C20.24 14.9933 19.6667 15.36 18.92 15.56L18.9 15.16C19.5133 15.3067 20.0533 15.5467 20.52 15.88C20.9867 16.2133 21.3467 16.6267 21.6 17.12C21.8533 17.6133 21.98 18.1733 21.98 18.8C21.98 19.4933 21.8667 20.1067 21.64 20.64C21.4133 21.16 21.08 21.5933 20.64 21.94C20.2 22.2867 19.68 22.5533 19.08 22.74C18.4933 22.9133 17.8333 23 17.1 23H10.82ZM13.7 20.4H16.98C17.4067 20.4 17.7667 20.34 18.06 20.22C18.3667 20.0867 18.6 19.8867 18.76 19.62C18.92 19.3533 19 19.04 19 18.68C19 18.3333 18.9133 18.04 18.74 17.8C18.5667 17.56 18.32 17.38 18 17.26C17.6933 17.1267 17.32 17.06 16.88 17.06H13.7V20.4ZM13.7 14.68H16.54C16.9 14.68 17.2133 14.6133 17.48 14.48C17.7467 14.3467 17.9467 14.1667 18.08 13.94C18.2267 13.7133 18.3 13.4467 18.3 13.14C18.3 12.6467 18.14 12.2667 17.82 12C17.5 11.7333 17.02 11.6 16.38 11.6H13.7V14.68Z" fill="#D781FF"/>
</svg>
