<svg width="32" height="32" viewBox="0 0 32 32" fill="none" xmlns="http://www.w3.org/2000/svg">
    <rect x="1" y="1" width="30" height="30" rx="5" fill="#ADFF44" fill-opacity="0.1" stroke="#D7FF81"
          stroke-width="2"/>
    <path d="M9.82 23V9H15.56C16.5867 9 17.5133 9.17333 18.34 9.52C19.18 9.85333 19.9 10.3333 20.5 10.96C21.1133 11.5733 21.58 12.3067 21.9 13.16C22.22 14.0133 22.38 14.96 22.38 16C22.38 17.0267 22.22 17.9733 21.9 18.84C21.58 19.6933 21.12 20.4333 20.52 21.06C19.92 21.6733 19.2 22.1533 18.36 22.5C17.52 22.8333 16.5867 23 15.56 23H9.82ZM12.82 20.82L12.5 20.3H15.46C16.06 20.3 16.6 20.2 17.08 20C17.56 19.7867 17.9667 19.5 18.3 19.14C18.6467 18.7667 18.9067 18.3133 19.08 17.78C19.2533 17.2467 19.34 16.6533 19.34 16C19.34 15.3467 19.2533 14.76 19.08 14.24C18.9067 13.7067 18.6467 13.2533 18.3 12.88C17.9667 12.5067 17.56 12.22 17.08 12.02C16.6 11.8067 16.06 11.7 15.46 11.7H12.44L12.82 11.22V20.82Z"
          fill="#D7FF81"/>
</svg>
