<svg width="32" height="32" viewBox="0 0 32 32" fill="none" xmlns="http://www.w3.org/2000/svg">
<rect x="1" y="1" width="30" height="30" rx="5" fill="#F097FF" fill-opacity="0.1" stroke="#D49CFF" stroke-width="2"/>
<path d="M15.36 23.2C14.4933 23.2 13.7 23.0933 12.98 22.88C12.2733 22.6667 11.64 22.3533 11.08 21.94C10.5333 21.5267 10.04 21.0267 9.6 20.44L11.48 18.3C12.1333 19.2067 12.78 19.8267 13.42 20.16C14.0733 20.48 14.78 20.64 15.54 20.64C15.9533 20.64 16.32 20.5867 16.64 20.48C16.9733 20.36 17.2333 20.1933 17.42 19.98C17.6067 19.7667 17.7 19.5133 17.7 19.22C17.7 19.0067 17.6533 18.8133 17.56 18.64C17.4667 18.4533 17.3333 18.2933 17.16 18.16C16.9867 18.0133 16.78 17.8867 16.54 17.78C16.3 17.66 16.0333 17.56 15.74 17.48C15.4467 17.3867 15.1267 17.3133 14.78 17.26C14.0333 17.0867 13.38 16.88 12.82 16.64C12.26 16.3867 11.7933 16.08 11.42 15.72C11.0467 15.3467 10.7667 14.9267 10.58 14.46C10.4067 13.9933 10.32 13.4667 10.32 12.88C10.32 12.28 10.4533 11.7267 10.72 11.22C10.9867 10.7 11.3533 10.2533 11.82 9.88C12.3 9.50667 12.8467 9.22 13.46 9.02C14.0867 8.82 14.7467 8.72 15.44 8.72C16.2933 8.72 17.04 8.82 17.68 9.02C18.32 9.20667 18.8733 9.48 19.34 9.84C19.82 10.2 20.22 10.64 20.54 11.16L18.64 13C18.36 12.6267 18.0533 12.3133 17.72 12.06C17.4 11.8067 17.0467 11.62 16.66 11.5C16.2867 11.3667 15.9 11.3 15.5 11.3C15.06 11.3 14.68 11.36 14.36 11.48C14.04 11.5867 13.7867 11.7467 13.6 11.96C13.4267 12.1733 13.34 12.4333 13.34 12.74C13.34 12.98 13.4 13.1933 13.52 13.38C13.64 13.5667 13.8133 13.7333 14.04 13.88C14.2667 14.0133 14.54 14.1333 14.86 14.24C15.18 14.3467 15.5333 14.44 15.92 14.52C16.6533 14.6667 17.3133 14.86 17.9 15.1C18.4867 15.34 18.9867 15.6333 19.4 15.98C19.8267 16.3133 20.1533 16.7133 20.38 17.18C20.6067 17.6333 20.72 18.1467 20.72 18.72C20.72 19.6667 20.4933 20.4733 20.04 21.14C19.5867 21.8067 18.96 22.32 18.16 22.68C17.36 23.0267 16.4267 23.2 15.36 23.2Z" fill="#D49CFF"/>
</svg>
