<svg width="20" height="20" viewBox="0 0 20 20" fill="none" xmlns="http://www.w3.org/2000/svg">
<g clip-path="url(#clip0_149_159)">
<path d="M14 10C14 8.93914 13.5786 7.92172 12.8284 7.17158C12.0783 6.42143 11.0609 6 10 6C8.93913 6 7.92171 6.42143 7.17157 7.17158C6.42142 7.92172 6 8.93914 6 10C6 11.0609 6.42142 12.0783 7.17157 12.8284C7.92171 13.5786 8.93913 14 10 14C11.0609 14 12.0783 13.5786 12.8284 12.8284C13.5786 12.0783 14 11.0609 14 10ZM14 10V11.5C14 12.163 14.2634 12.7989 14.7322 13.2678C15.2011 13.7366 15.837 14 16.5 14C17.163 14 17.7989 13.7366 18.2678 13.2678C18.7366 12.7989 19 12.163 19 11.5V10C19 8.21997 18.4722 6.47991 17.4832 4.99987C16.4943 3.51983 15.0887 2.36628 13.4441 1.68509C11.7996 1.0039 9.99001 0.82567 8.24418 1.17294C6.49836 1.5202 4.89471 2.37737 3.63604 3.63604C2.37736 4.89472 1.5202 6.49836 1.17293 8.24419C0.825662 9.99002 1.00389 11.7996 1.68508 13.4442C2.36627 15.0887 3.51982 16.4943 4.99986 17.4832C6.47991 18.4722 8.21996 19 10 19C11.5802 19.0016 13.1327 18.5862 14.5 17.794" stroke="white" stroke-width="2" stroke-linecap="round" stroke-linejoin="round"/>
</g>
<defs>
<clipPath id="clip0_149_159">
<rect width="20" height="20" fill="white"/>
</clipPath>
</defs>
</svg>
