<svg width="75" height="86" viewBox="0 0 75 86" fill="none" xmlns="http://www.w3.org/2000/svg">
<path d="M18.1136 19.8512L13.0978 18.4259C12.0353 18.1239 11.4187 17.0178 11.7207 15.9553L14.5713 5.92383C14.8733 4.86133 15.9794 4.24476 17.0419 4.5467L68.7109 19.2295C69.7734 19.5315 70.39 20.6376 70.088 21.7001L67.2374 31.7316C66.9354 32.7941 65.8293 33.4106 64.7668 33.1087L59.3174 31.5601M18.1136 19.8512C10.1556 38.3509 6.7598 49.1458 4.16971 68.0161C4.03481 68.9989 4.64666 69.9304 5.60091 70.2016L42.9029 80.8017C44.0814 81.1366 45.2812 80.3404 45.4346 79.125C47.7892 60.4733 49.8865 45.912 59.3174 31.5601M18.1136 19.8512L59.3174 31.5601" stroke="white" stroke-width="8"/>
</svg>
