<svg width="20" height="20" viewBox="0 0 20 20" fill="none" xmlns="http://www.w3.org/2000/svg">
    <path d="M16.6058 16.5449L19 19M17.7037 14.4371C17.7037 16.3353 16.2031 17.8742 14.3519 17.8742C12.5007 17.8742 11 16.3353 11 14.4371C11 12.5388 12.5007 11 14.3519 11C16.2031 11 17.7037 12.5388 17.7037 14.4371Z"
          stroke="white" stroke-width="2"/>
    <path d="M17 8.11111V5.44444C17 5.2087 16.9064 4.9826 16.7397 4.81591C16.573 4.64921 16.3469 4.55556 16.1111 4.55556H13.4444C13.2087 4.55556 12.9826 4.4619 12.8159 4.29521C12.6492 4.12851 12.5556 3.90241 12.5556 3.66667V2.77778C12.5556 2.30628 12.3683 1.8541 12.0349 1.5207C11.7015 1.1873 11.2493 1 10.7778 1C10.3063 1 9.8541 1.1873 9.5207 1.5207C9.1873 1.8541 9 2.30628 9 2.77778V3.66667C9 3.90241 8.90635 4.12851 8.73965 4.29521C8.57295 4.4619 8.34686 4.55556 8.11111 4.55556H5.44444C5.2087 4.55556 4.9826 4.64921 4.81591 4.81591C4.64921 4.9826 4.55556 5.2087 4.55556 5.44444V8.11111C4.55556 8.34686 4.4619 8.57295 4.29521 8.73965C4.12851 8.90635 3.90241 9 3.66667 9H2.77778C2.30628 9 1.8541 9.1873 1.5207 9.5207C1.1873 9.8541 1 10.3063 1 10.7778C1 11.2493 1.1873 11.7015 1.5207 12.0349C1.8541 12.3683 2.30628 12.5556 2.77778 12.5556H3.66667C3.90241 12.5556 4.12851 12.6492 4.29521 12.8159C4.4619 12.9826 4.55556 13.2087 4.55556 13.4444V16.1111C4.55556 16.3469 4.64921 16.573 4.81591 16.7397C4.9826 16.9064 5.2087 17 5.44444 17H8.11111"
          stroke="white" stroke-width="2" stroke-linecap="round" stroke-linejoin="round"/>
</svg>
