<svg width="23" height="17" viewBox="0 0 23 17" fill="none" xmlns="http://www.w3.org/2000/svg">
<path fill-rule="evenodd" clip-rule="evenodd" d="M22.5186 0.497758C22.8268 0.816569 23 1.24891 23 1.69971C23 2.15051 22.8268 2.58285 22.5186 2.90166L9.36396 16.5022C9.0556 16.821 8.63744 17 8.20142 17C7.76541 17 7.34724 16.821 7.03888 16.5022L0.461582 9.70195C0.162054 9.38131 -0.0036843 8.95187 6.21598e-05 8.50612C0.00380862 8.06037 0.176741 7.63397 0.481612 7.31876C0.786483 7.00355 1.1989 6.82476 1.63004 6.82088C2.06117 6.81701 2.47653 6.98837 2.78666 7.29805L8.20142 12.8964L20.1935 0.497758C20.5018 0.179044 20.92 0 21.356 0C21.792 0 22.2102 0.179044 22.5186 0.497758Z" fill="white"/>
</svg>
