<svg width="18" height="18" viewBox="0 0 18 18" fill="none" xmlns="http://www.w3.org/2000/svg">
    <g clip-path="url(#clip0_154_622)">
        <path d="M7.60417 2.5975C7.95917 1.13417 10.0408 1.13417 10.3958 2.5975C10.4491 2.81733 10.5535 3.02148 10.7006 3.19333C10.8477 3.36518 11.0332 3.49988 11.2422 3.58645C11.4512 3.67303 11.6776 3.70904 11.9032 3.69156C12.1287 3.67407 12.3469 3.60359 12.54 3.48583C13.8258 2.7025 15.2983 4.17417 14.515 5.46083C14.3974 5.65388 14.327 5.87195 14.3096 6.09731C14.2922 6.32267 14.3281 6.54897 14.4146 6.75782C14.5011 6.96666 14.6356 7.15215 14.8073 7.29921C14.9789 7.44627 15.1829 7.55075 15.4025 7.60417C16.8658 7.95917 16.8658 10.0408 15.4025 10.3958C15.1827 10.4491 14.9785 10.5535 14.8067 10.7006C14.6348 10.8477 14.5001 11.0332 14.4135 11.2422C14.327 11.4512 14.291 11.6776 14.3084 11.9032C14.3259 12.1287 14.3964 12.3469 14.5142 12.54C15.2975 13.8258 13.8258 15.2983 12.5392 14.515C12.3461 14.3974 12.1281 14.327 11.9027 14.3096C11.6773 14.2922 11.451 14.3281 11.2422 14.4146C11.0333 14.5011 10.8479 14.6356 10.7008 14.8073C10.5537 14.9789 10.4492 15.1829 10.3958 15.4025C10.0408 16.8658 7.95917 16.8658 7.60417 15.4025C7.5509 15.1827 7.44648 14.9785 7.29941 14.8067C7.15233 14.6348 6.96676 14.5001 6.75779 14.4135C6.54882 14.327 6.32236 14.291 6.09685 14.3084C5.87133 14.3259 5.65313 14.3964 5.46 14.5142C4.17417 15.2975 2.70167 13.8258 3.485 12.5392C3.60258 12.3461 3.67296 12.1281 3.6904 11.9027C3.70785 11.6773 3.67187 11.451 3.58539 11.2422C3.49892 11.0333 3.36438 10.8479 3.19273 10.7008C3.02107 10.5537 2.81714 10.4492 2.5975 10.3958C1.13417 10.0408 1.13417 7.95917 2.5975 7.60417C2.81733 7.5509 3.02148 7.44648 3.19333 7.29941C3.36518 7.15233 3.49988 6.96676 3.58645 6.75779C3.67303 6.54882 3.70904 6.32236 3.69156 6.09685C3.67407 5.87133 3.60359 5.65313 3.48583 5.46C2.7025 4.17417 4.17417 2.70167 5.46083 3.485C6.29083 3.99167 7.37417 3.54333 7.60417 2.5975Z"
              stroke="white" stroke-width="1.5" stroke-linecap="round" stroke-linejoin="round"/>
        <path d="M11.5 9C11.5 9.66304 11.2366 10.2989 10.7678 10.7678C10.2989 11.2366 9.66304 11.5 9 11.5C8.33696 11.5 7.70107 11.2366 7.23223 10.7678C6.76339 10.2989 6.5 9.66304 6.5 9C6.5 8.33696 6.76339 7.70107 7.23223 7.23223C7.70107 6.76339 8.33696 6.5 9 6.5C9.66304 6.5 10.2989 6.76339 10.7678 7.23223C11.2366 7.70107 11.5 8.33696 11.5 9Z"
              stroke="white" stroke-width="1.5" stroke-linecap="round" stroke-linejoin="round"/>
    </g>
    <defs>
        <clipPath id="clip0_154_622">
            <rect width="18" height="18" fill="white"/>
        </clipPath>
    </defs>
</svg>
