<svg width="18" height="18" viewBox="0 0 18 18" fill="none" xmlns="http://www.w3.org/2000/svg">
    <path d="M1 12C1 11.4477 1.44772 11 2 11H6C6.55228 11 7 11.4477 7 12V16C7 16.5523 6.55228 17 6 17H2C1.44772 17 1 16.5523 1 16V12Z"
          stroke="white" stroke-width="2"/>
    <path d="M1 2V6.58824C1 7.14052 1.44772 7.58824 2 7.58824H9.375C9.92728 7.58824 10.375 8.03595 10.375 8.58823V16C10.375 16.5523 10.8227 17 11.375 17H16C16.5523 17 17 16.5523 17 16V2C17 1.44772 16.5523 1 16 1H2C1.44772 1 1 1.44771 1 2Z"
          stroke="white" stroke-width="2"/>
</svg>
