<svg width="10" height="14" viewBox="0 0 10 14" fill="none" xmlns="http://www.w3.org/2000/svg">
<path fill-rule="evenodd" clip-rule="evenodd" d="M9.70757 9.0065C9.89481 9.17058 10 9.39311 10 9.62513C10 9.85715 9.89481 10.0797 9.70757 10.2438L5.71239 13.7438C5.52509 13.9078 5.27109 14 5.00624 14C4.7414 14 4.4874 13.9078 4.3001 13.7438L0.30492 10.2438C0.209525 10.163 0.133435 10.0665 0.081089 9.95974C0.0287432 9.85298 0.00119014 9.73816 3.77115e-05 9.62198C-0.00111471 9.5058 0.0241563 9.39057 0.0743765 9.28304C0.124597 9.1755 0.19876 9.07781 0.29254 8.99565C0.386319 8.91349 0.497837 8.84852 0.620585 8.80452C0.743333 8.76053 0.874854 8.73839 1.00747 8.7394C1.14009 8.74041 1.27115 8.76455 1.39301 8.8104C1.51487 8.85626 1.62508 8.92292 1.71721 9.0065L4.00745 11.0129L4.00745 0.875012C4.00745 0.642944 4.11268 0.420381 4.29999 0.256285C4.4873 0.0921884 4.74135 0 5.00624 0C5.27114 0 5.52519 0.0921884 5.7125 0.256285C5.89981 0.420381 6.00504 0.642944 6.00504 0.875012L6.00504 11.0129L8.29527 9.0065C8.48257 8.84246 8.73658 8.7503 9.00142 8.7503C9.26626 8.7503 9.52026 8.84246 9.70757 9.0065Z" fill="white"/>
</svg>
