<svg width="94" height="74" viewBox="0 0 94 74" fill="none" xmlns="http://www.w3.org/2000/svg">
<path d="M49.3959 5H9.14751C6.53762 5 4.6268 7.45899 5.27146 9.98802L9.80862 27.7877C10.2238 29.4163 11.6156 30.6071 13.2867 30.7871C20.2553 31.5378 24.708 32.3846 28.7884 35.8746C29.5926 36.5625 30 37.5942 30 38.6525V46.9925C30 48.5259 29.1126 49.91 27.7659 50.6436C22.5928 53.4615 20.1448 56.1878 17.4623 61.1312C17.1546 61.6982 17 62.3369 17 62.982V64.5C17 66.7091 18.7909 68.5 21 68.5H74.5C76.7091 68.5 78.5 66.7091 78.5 64.5V63.647C78.5 62.592 78.0835 61.5767 77.335 60.8331C71.739 55.2741 67.7429 52.0864 60.2662 50.2013C58.3918 49.7287 57 48.0949 57 46.1619V40.3625C57 38.4186 58.4031 36.7623 60.3125 36.3978C72.4887 34.0737 79.7948 31.1967 89.0462 20.6105C89.668 19.8991 90 18.9817 90 18.0369V17C90 14.7909 88.2091 13 86 13H59.1041C57.7869 13 56.5542 12.3515 55.808 11.2661L52.692 6.73388C51.9458 5.64847 50.7131 5 49.3959 5Z" stroke="white" stroke-width="8" stroke-linecap="round"/>
</svg>
