<svg width="20" height="20" viewBox="0 0 20 20" fill="none" xmlns="http://www.w3.org/2000/svg">
    <path d="M10 11C10.5523 11 11 10.5523 11 10V1C11 0.447715 10.5523 -1.19209e-07 10 -1.19209e-07C9.44771 -1.19209e-07 9 0.447715 9 1V9H1C0.447715 9 -1.19209e-07 9.44771 -1.19209e-07 10C-1.19209e-07 10.5523 0.447715 11 1 11H10ZM0.292893 1.70711L9.29289 10.7071L10.7071 9.29289L1.70711 0.292893L0.292893 1.70711Z"
          fill="white"/>
    <path d="M13 2H16C17.1046 2 18 2.89543 18 4V16C18 17.1046 17.1046 18 16 18H4C2.89543 18 2 17.1046 2 16V13"
          stroke="white" stroke-width="2"/>
</svg>
