<svg width="90" height="90" viewBox="0 0 90 90" fill="none" xmlns="http://www.w3.org/2000/svg">
<path d="M31.8125 86H44.9375M58.0625 86H44.9375M44.9375 86C44.9375 86 44.9375 39.1628 44.9375 11M44.9375 11C31.8125 23.0192 13 17.25 13 17.25M44.9375 11C58.0625 23.0193 76 17.25 76 17.25" stroke="white" stroke-width="8" stroke-linecap="round"/>
<path d="M5.01568 48.48H25.7424M5.01568 48.48C5.01568 48.48 4.13369 60 15.5995 60C27.0653 60 25.7424 48.48 25.7424 48.48M5.01568 48.48L15.5995 24L25.7424 48.48M63.2268 48.48H83.9535M63.2268 48.48C63.2268 48.48 62.3448 60 73.8106 60C85.2765 60 83.9535 48.48 83.9535 48.48M63.2268 48.48L73.8106 24L83.9535 48.48" stroke="white" stroke-width="8"/>
<ellipse cx="45" cy="5.5" rx="5" ry="5.5" fill="white"/>
</svg>
