<svg width="18" height="17" viewBox="0 0 18 17" fill="none" xmlns="http://www.w3.org/2000/svg">
    <path d="M8.16667 11.3333L4.83333 8.00001M4.83333 8.00001L8.16667 4.66668M4.83333 8.00001H16.5M12.3333 11.3333V12.1667C12.3333 12.8297 12.0699 13.4656 11.6011 13.9344C11.1323 14.4033 10.4964 14.6667 9.83333 14.6667H4C3.33696 14.6667 2.70107 14.4033 2.23223 13.9344C1.76339 13.4656 1.5 12.8297 1.5 12.1667V3.83334C1.5 3.1703 1.76339 2.53442 2.23223 2.06558C2.70107 1.59674 3.33696 1.33334 4 1.33334H9.83333C10.4964 1.33334 11.1323 1.59674 11.6011 2.06558C12.0699 2.53442 12.3333 3.1703 12.3333 3.83334V4.66668"
          stroke="white" stroke-width="1.5" stroke-linecap="round" stroke-linejoin="round"/>
</svg>
