<svg width="78" height="78" viewBox="0 0 78 78" fill="none" xmlns="http://www.w3.org/2000/svg">
<mask id="path-1-inside-1_421_252" fill="white">
<path d="M40.6547 15.0731C46.1903 15.506 51.4046 17.8449 55.4091 21.6913C59.4135 25.5377 61.9604 30.6536 62.6158 36.1673C63.2711 41.6811 61.9944 47.2514 59.0031 51.9293C56.0118 56.6073 51.4911 60.1033 46.2112 61.8217C40.9312 63.5401 35.2188 63.3747 30.0472 61.3535C24.8756 59.3323 20.5649 55.5804 17.8494 50.7372C15.1339 45.894 14.1818 40.2591 15.1552 34.7925C16.1286 29.326 18.9674 24.3661 23.1878 20.7579L26.8973 25.0969C23.6807 27.8468 21.5172 31.627 20.7753 35.7933C20.0334 39.9596 20.7591 44.2542 22.8287 47.9455C24.8982 51.6367 28.1837 54.4962 32.1252 56.0366C36.0667 57.577 40.4204 57.7032 44.4445 56.3935C48.4685 55.0838 51.914 52.4193 54.1938 48.8541C56.4736 45.2888 57.4466 41.0434 56.9472 36.8411C56.4477 32.6388 54.5066 28.7398 51.4546 25.8083C48.4026 22.8767 44.4286 21.0941 40.2096 20.7642L40.6547 15.0731Z"/>
</mask>
<path d="M40.6547 15.0731C46.1903 15.506 51.4046 17.8449 55.4091 21.6913C59.4135 25.5377 61.9604 30.6536 62.6158 36.1673C63.2711 41.6811 61.9944 47.2514 59.0031 51.9293C56.0118 56.6073 51.4911 60.1033 46.2112 61.8217C40.9312 63.5401 35.2188 63.3747 30.0472 61.3535C24.8756 59.3323 20.5649 55.5804 17.8494 50.7372C15.1339 45.894 14.1818 40.2591 15.1552 34.7925C16.1286 29.326 18.9674 24.3661 23.1878 20.7579L26.8973 25.0969C23.6807 27.8468 21.5172 31.627 20.7753 35.7933C20.0334 39.9596 20.7591 44.2542 22.8287 47.9455C24.8982 51.6367 28.1837 54.4962 32.1252 56.0366C36.0667 57.577 40.4204 57.7032 44.4445 56.3935C48.4685 55.0838 51.914 52.4193 54.1938 48.8541C56.4736 45.2888 57.4466 41.0434 56.9472 36.8411C56.4477 32.6388 54.5066 28.7398 51.4546 25.8083C48.4026 22.8767 44.4286 21.0941 40.2096 20.7642L40.6547 15.0731Z" stroke="white" stroke-width="12" mask="url(#path-1-inside-1_421_252)"/>
<mask id="path-2-inside-2_421_252" fill="white">
<path d="M63.1189 67.5032C56.5245 73.141 48.1793 76.3178 39.5053 76.4924C30.8312 76.667 22.3649 73.8286 15.549 68.4608C8.73309 63.093 3.98924 55.528 2.12575 47.0547C0.262261 38.5813 1.39444 29.724 5.32937 21.9918C9.2643 14.2597 15.7585 8.13111 23.7055 4.65036C31.6525 1.16962 40.5605 0.552063 48.9117 2.90292C57.263 5.25377 64.5407 10.4276 69.505 17.5428C74.4692 24.658 76.8128 33.2744 76.1363 41.9238L70.1314 41.4542C70.6992 34.194 68.7321 26.9616 64.5652 20.9893C60.3983 15.0169 54.2895 10.6741 47.2796 8.70085C40.2698 6.72759 32.7925 7.24596 26.122 10.1676C19.4515 13.0893 14.0004 18.2335 10.6975 24.7237C7.39459 31.2139 6.44426 38.6486 8.00844 45.7609C9.57261 52.8733 13.5545 59.2232 19.2756 63.7288C24.9968 68.2344 32.1032 70.6169 39.384 70.4704C46.6649 70.3238 53.6696 67.6572 59.2048 62.925L63.1189 67.5032Z"/>
</mask>
<path d="M63.1189 67.5032C56.5245 73.141 48.1793 76.3178 39.5053 76.4924C30.8312 76.667 22.3649 73.8286 15.549 68.4608C8.73309 63.093 3.98924 55.528 2.12575 47.0547C0.262261 38.5813 1.39444 29.724 5.32937 21.9918C9.2643 14.2597 15.7585 8.13111 23.7055 4.65036C31.6525 1.16962 40.5605 0.552063 48.9117 2.90292C57.263 5.25377 64.5407 10.4276 69.505 17.5428C74.4692 24.658 76.8128 33.2744 76.1363 41.9238L70.1314 41.4542C70.6992 34.194 68.7321 26.9616 64.5652 20.9893C60.3983 15.0169 54.2895 10.6741 47.2796 8.70085C40.2698 6.72759 32.7925 7.24596 26.122 10.1676C19.4515 13.0893 14.0004 18.2335 10.6975 24.7237C7.39459 31.2139 6.44426 38.6486 8.00844 45.7609C9.57261 52.8733 13.5545 59.2232 19.2756 63.7288C24.9968 68.2344 32.1032 70.6169 39.384 70.4704C46.6649 70.3238 53.6696 67.6572 59.2048 62.925L63.1189 67.5032Z" stroke="white" stroke-width="12" mask="url(#path-2-inside-2_421_252)"/>
<line x1="35.1213" y1="42.0191" x2="14.1213" y2="63.0191" stroke="white" stroke-width="6"/>
<path d="M35.7835 32L32.8487 36.0636C31.6685 37.6976 31.8886 39.9545 33.3621 41.3298L36.9077 44.639C38.3601 45.9946 40.5874 46.0787 42.1379 44.8365L45.7835 41.9159" stroke="white" stroke-width="6" stroke-linecap="round"/>
<line x1="58.5263" y1="30.2761" x2="71.5263" y2="24.2761" stroke="white" stroke-width="6"/>
</svg>
