<svg width="78" height="78" viewBox="0 0 78 78" fill="none" xmlns="http://www.w3.org/2000/svg">
    <path fill-rule="evenodd" clip-rule="evenodd"
          d="M46.577 16.3006C44.6755 15.6478 42.6868 15.232 40.6547 15.0731L40.2096 20.7642C44.4286 21.0941 48.4026 22.8767 51.4546 25.8083C54.5066 28.7398 56.4477 32.6389 56.9472 36.8411C57.4466 41.0434 56.4736 45.2888 54.1938 48.8541C51.914 52.4193 48.4685 55.0838 44.4445 56.3935C40.4204 57.7032 36.0667 57.5771 32.1252 56.0366C28.1837 54.4962 24.8982 51.6367 22.8286 47.9455C20.7591 44.2543 20.0334 39.9596 20.7753 35.7933C21.5172 31.627 23.6807 27.8468 26.8973 25.0969L23.1878 20.758C21.6385 22.0825 20.2754 23.5891 19.1225 25.2361C17.1346 28.0758 15.7713 31.3327 15.1552 34.7925C14.1818 40.2591 15.1339 45.894 17.8494 50.7372C20.5648 55.5805 24.8756 59.3323 30.0472 61.3535C35.2188 63.3747 40.9312 63.5401 46.2112 61.8217C51.4911 60.1033 56.0118 56.6073 59.0031 51.9294C61.9944 47.2515 63.2711 41.6811 62.6157 36.1674C61.9604 30.6536 59.4135 25.5377 55.4091 21.6913C52.8746 19.2569 49.8555 17.4263 46.577 16.3006ZM58.2444 71.035C52.6195 74.4579 46.1591 76.3585 39.5052 76.4924C30.8312 76.667 22.3649 73.8286 15.549 68.4609C8.73307 63.0931 3.98922 55.528 2.12572 47.0547C0.262236 38.5813 1.39441 29.724 5.32935 21.9919M5.32935 21.9919C9.26427 14.2597 15.7585 8.13112 23.7055 4.65038C31.6524 1.16964 40.5605 0.552081 48.9117 2.90293C57.263 5.25379 64.5407 10.4276 69.505 17.5428C73.313 23.0009 75.579 29.3423 76.1226 35.9044C76.2876 37.8967 76.2939 39.9094 76.1363 41.9238L70.1314 41.4542C70.6992 34.1941 68.732 26.9616 64.5652 20.9893C60.3983 15.0169 54.2895 10.6741 47.2796 8.70087C40.2697 6.72761 32.7925 7.24597 26.122 10.1676C19.4515 13.0893 14.0004 18.2335 10.6975 24.7237C7.39457 31.2139 6.44424 38.6486 8.00842 45.7609C9.57259 52.8733 13.5545 59.2232 19.2756 63.7288C24.9968 68.2345 32.1032 70.6169 39.384 70.4704C46.6648 70.3238 53.6696 67.6572 59.2048 62.925L63.1189 67.5032C61.583 68.8162 59.9522 69.9958 58.2444 71.035"
          fill="white"/>
    <line x1="35.1213" y1="42.0191" x2="14.1213" y2="63.0191" stroke="white" stroke-width="6"/>
    <path d="M35.7835 32L32.8487 36.0636C31.6685 37.6976 31.8886 39.9545 33.3621 41.3298L36.9077 44.639C38.3601 45.9946 40.5874 46.0787 42.1379 44.8365L45.7835 41.9159"
          stroke="white" stroke-width="6" stroke-linecap="round"/>
    <line x1="58.5263" y1="30.2761" x2="71.5263" y2="24.2761" stroke="white" stroke-width="6"/>
</svg>
