<svg width="20" height="20" viewBox="0 0 20 20" fill="none" xmlns="http://www.w3.org/2000/svg">
<path d="M8.84758 2.5508L8.68144 2.38466L8.44751 2.40652L2.78389 2.93573L2.37115 2.97429L2.33258 3.38704L1.80337 9.05065L1.78152 9.28459L1.94765 9.45073L10.8723 18.3753L11.2258 18.7289L11.5794 18.3753L17.7722 12.1825L18.1257 11.829L17.7722 11.4754L8.84758 2.5508ZM8.35948 1.46441C8.78809 1.42436 9.21226 1.57733 9.51665 1.88173L18.4413 10.8063C19.006 11.3711 19.006 12.2868 18.4413 12.8516L12.2484 19.0444C11.6837 19.6092 10.768 19.6092 10.2032 19.0444L1.27858 10.1198C0.974183 9.81541 0.821214 9.39123 0.861262 8.96262L1.39047 3.29901C1.45516 2.60663 2.00348 2.05831 2.69586 1.99362L8.35948 1.46441ZM7 6.49995C7 7.05223 6.55228 7.49995 6 7.49995C5.44771 7.49995 5 7.05223 5 6.49995C5 5.94766 5.44771 5.49995 6 5.49995C6.55228 5.49995 7 5.94766 7 6.49995Z" fill="white" stroke="white"/>
</svg>
