<svg width="81" height="94" viewBox="0 0 81 94" fill="none" xmlns="http://www.w3.org/2000/svg">
<path d="M68 54.5C68 74.9341 54.7183 90 40 90C25.2817 90 12 74.9341 12 54.5C12 34.0659 25.2817 19 40 19C54.7183 19 68 34.0659 68 54.5Z" stroke="white" stroke-width="8"/>
<path d="M30 43V52" stroke="white" stroke-width="8" stroke-linecap="round"/>
<path d="M50 43V52" stroke="white" stroke-width="8" stroke-linecap="round"/>
<path d="M37.5 77L34 85.5H45L41.5 77H37.5Z" stroke="white" stroke-width="8" stroke-linecap="round"/>
<path d="M18 59H4" stroke="white" stroke-width="8" stroke-linecap="round"/>
<path d="M62.5493 59H76.5493" stroke="white" stroke-width="8" stroke-linecap="round"/>
<path d="M18.4507 69L5 72.8831" stroke="white" stroke-width="8" stroke-linecap="round"/>
<path d="M62 69L75.5425 72.8831" stroke="white" stroke-width="8" stroke-linecap="round"/>
<path d="M17.149 6.91455L15 37L33.5 21L20.6737 5.76877C19.5171 4.39535 17.2769 5.12358 17.149 6.91455Z" stroke="white" stroke-width="8" stroke-linecap="round"/>
<path d="M63.351 6.91455L65.5 37L47 21L59.8263 5.76877C60.9829 4.39535 63.2231 5.12358 63.351 6.91455Z" stroke="white" stroke-width="8" stroke-linecap="round"/>
</svg>
