<svg width="20" height="20" viewBox="0 0 20 20" fill="none" xmlns="http://www.w3.org/2000/svg">
<path d="M11 10C11 9.44771 10.5523 9 10 9L0.999999 9C0.447715 9 -5.36753e-07 9.44772 -5.12612e-07 10C-4.88471e-07 10.5523 0.447715 11 1 11L9 11L9 19C9 19.5523 9.44772 20 10 20C10.5523 20 11 19.5523 11 19L11 10ZM1.70711 19.7071L10.7071 10.7071L9.29289 9.29289L0.292893 18.2929L1.70711 19.7071Z" fill="white"/>
<path d="M2 7L2 4C2 2.89543 2.89543 2 4 2L16 2C17.1046 2 18 2.89543 18 4L18 16C18 17.1046 17.1046 18 16 18L13 18" stroke="white" stroke-width="2"/>
</svg>
