<svg width="83" height="82" viewBox="0 0 83 82" fill="none" xmlns="http://www.w3.org/2000/svg">
    <path d="M72.6712 62.3471C68.3591 68.7948 62.1738 73.7185 54.997 76.4869L49.6786 56.5997C52.1139 55.2806 54.2124 53.3819 55.7742 51.0465C58.0905 47.5832 59.0686 43.3958 58.5263 39.2648C57.9839 35.1337 55.9582 31.3407 52.8264 28.5926C49.6947 25.8444 45.6707 24.3286 41.5042 24.3276C37.3376 24.3266 33.3129 25.8404 30.1798 28.5871C27.0467 31.3337 25.0191 35.1257 24.4748 39.2565C23.9304 43.3873 24.9065 47.5751 27.2211 51.0396C28.7818 53.3757 30.8793 55.2754 33.314 56.5957L27.9859 76.4804C20.8105 73.7084 14.6276 68.7818 10.3186 62.332C5.26415 54.7665 3.13269 45.6214 4.32139 36.6007C5.51009 27.5801 9.93787 19.2994 16.7797 13.3015C23.6214 7.30363 32.4105 3.99779 41.5091 4C50.6077 4.00221 59.3951 7.31232 66.234 13.3135C73.0729 19.3147 77.4966 27.5976 78.6809 36.6188C79.8653 45.64 77.7293 54.7841 72.6712 62.3471Z"
          stroke="white" stroke-width="8"/>
</svg>
