<svg width="19" height="19" viewBox="0 0 19 19" fill="none" xmlns="http://www.w3.org/2000/svg">
    <path d="M1 1.002V6.31387H1.61837M1.61837 6.31387C2.32371 4.56959 3.58791 3.10859 5.21284 2.15984C6.83777 1.21109 8.7316 0.828208 10.5975 1.0712C12.4635 1.3142 14.196 2.16933 15.5237 3.50259C16.8514 4.83585 17.6991 6.57189 17.9341 8.43862C18.0863 10.2031 17.8642 11.1045 17.3827 12.6881C16.6763 14.4314 15.4118 15.8912 13.787 16.8391C12.1622 17.787 10.269 18.1695 8.40361 17.9266C6.53824 17.6837 4.80609 16.8291 3.47832 15.4968C2.15055 14.1644 1.30213 12.4294 1.06587 10.5634M1.61837 6.31387H6.3125"
          stroke="white" stroke-width="2" stroke-linecap="round" stroke-linejoin="round"/>
</svg>
