<svg width="20" height="20" viewBox="0 0 20 20" fill="none" xmlns="http://www.w3.org/2000/svg">
<path d="M7 14.5C7 14.7761 6.77614 15 6.5 15C6.22386 15 6 14.7761 6 14.5C6 14.2239 6.22386 14 6.5 14C6.77614 14 7 14.2239 7 14.5Z" fill="white"/>
<path d="M11 14.5C11 14.7761 10.7761 15 10.5 15C10.2239 15 10 14.7761 10 14.5C10 14.2239 10.2239 14 10.5 14C10.7761 14 11 14.2239 11 14.5Z" fill="white"/>
<path d="M15 14.5C15 14.7761 14.7761 15 14.5 15C14.2239 15 14 14.7761 14 14.5C14 14.2239 14.2239 14 14.5 14C14.7761 14 15 14.2239 15 14.5Z" fill="white"/>
<path d="M1 2.8C1 1.80589 1.80589 1 2.8 1H15.4C17.3882 1 19 2.61177 19 4.6V17.2C19 18.1941 18.1941 19 17.2 19H2.8C1.80589 19 1 18.1941 1 17.2V2.8Z" stroke="white" stroke-width="2"/>
<path d="M5.5 1H14.5V5.5C14.5 6.49411 13.6941 7.3 12.7 7.3H7.3C6.30589 7.3 5.5 6.49411 5.5 5.5V1Z" stroke="white" stroke-width="2"/>
<path d="M7 14.5C7 14.7761 6.77614 15 6.5 15C6.22386 15 6 14.7761 6 14.5C6 14.2239 6.22386 14 6.5 14C6.77614 14 7 14.2239 7 14.5Z" stroke="white" stroke-width="2"/>
<path d="M11 14.5C11 14.7761 10.7761 15 10.5 15C10.2239 15 10 14.7761 10 14.5C10 14.2239 10.2239 14 10.5 14C10.7761 14 11 14.2239 11 14.5Z" stroke="white" stroke-width="2"/>
<path d="M15 14.5C15 14.7761 14.7761 15 14.5 15C14.2239 15 14 14.7761 14 14.5C14 14.2239 14.2239 14 14.5 14C14.7761 14 15 14.2239 15 14.5Z" stroke="white" stroke-width="2"/>
</svg>
