<svg width="20" height="20" viewBox="0 0 20 20" fill="none" xmlns="http://www.w3.org/2000/svg">
    <path d="M1 2.8C1 1.80589 1.80589 1 2.8 1H15.4C17.3882 1 19 2.61177 19 4.6V17.2C19 18.1941 18.1941 19 17.2 19H2.8C1.80589 19 1 18.1941 1 17.2V2.8Z"
          stroke="white" stroke-width="2"/>
    <path d="M5.5 1H14.5V5.5C14.5 6.49411 13.6941 7.3 12.7 7.3H7.3C6.30589 7.3 5.5 6.49411 5.5 5.5V1Z" stroke="white"
          stroke-width="2"/>
    <path d="M15.4 19L4.6 19L4.6 12.8C4.6 11.8059 5.40589 11 6.4 11C7.39411 11 13.6 11 13.6 11C13.6 11 13.6 11 13.6 11C14.5941 11 15.4 11.8059 15.4 12.8V19Z"
          stroke="white" stroke-width="2"/>
</svg>
