<svg width="20" height="20" viewBox="0 0 20 20" fill="none" xmlns="http://www.w3.org/2000/svg">
<path fill-rule="evenodd" clip-rule="evenodd" d="M7.58579 11L4.04545 14.5403L2.579 11H7.58579ZM0 10L2.92893 2.92893L10 0L17.0711 2.92893L20 10L17.0711 17.0711L10 20L2.92893 17.0711L0 10ZM5.45967 15.9545L9 12.4142V17.421L5.45967 15.9545ZM11 17.421V12.4142L14.5403 15.9545L11 17.421ZM15.9545 14.5403L12.4142 11H17.421L15.9545 14.5403ZM17.421 9H12.4142L15.9545 5.45967L17.421 9ZM14.5403 4.04545L11 7.58579V2.579L14.5403 4.04545ZM9 2.579L5.45967 4.04545L9 7.58579V2.579ZM4.04545 5.45967L7.58579 9H2.579L4.04545 5.45967Z" fill="white"/>
</svg>
