<svg width="17" height="18" viewBox="0 0 17 18" fill="none" xmlns="http://www.w3.org/2000/svg">
    <path d="M6.4069 18C5.73664 17.8546 5.15838 17.6762 4.67211 17.4648C4.18584 17.2533 3.785 16.989 3.46958 16.6718C3.15417 16.3678 2.9176 15.9978 2.7599 15.5617C2.61533 15.1388 2.54305 14.6498 2.54305 14.0947L2.56276 12.2115C2.56276 11.511 2.41162 10.989 2.10935 10.6454C1.80707 10.2885 1.37338 10.1035 0.808255 10.0903H0V7.90969H0.847682C1.4128 7.89648 1.83993 7.71806 2.12906 7.37445C2.41819 7.03084 2.56276 6.5022 2.56276 5.78855L2.54305 3.90529C2.54305 2.82159 2.84532 1.97577 3.44987 1.36784C4.06756 0.746696 5.05324 0.290749 6.4069 0L6.97859 1.98238C6.47918 2.15419 6.08491 2.32599 5.79578 2.4978C5.51979 2.6696 5.32266 2.90088 5.20437 3.19163C5.09924 3.46916 5.04667 3.85242 5.04667 4.34141L5.08609 6.06608C5.08609 6.8326 4.86924 7.47357 4.43555 7.98899C4.01499 8.50441 3.35787 8.87445 2.46419 9.09912V8.88106C3.35787 9.13216 4.01499 9.51542 4.43555 10.0308C4.86924 10.5463 5.08609 11.1806 5.08609 11.9339L5.04667 13.6586C5.04667 14.1211 5.09924 14.4846 5.20437 14.7489C5.32266 15.0264 5.51979 15.2511 5.79578 15.4229C6.08491 15.5947 6.47918 15.7665 6.97859 15.9383L6.4069 18Z"
          fill="white"/>
    <path d="M10.5931 18L10.0017 16.0176C10.5011 15.8458 10.8888 15.674 11.1648 15.5022C11.4408 15.3304 11.6379 15.0991 11.7562 14.8084C11.8876 14.5308 11.9533 14.1476 11.9533 13.6586L11.9139 11.9339C11.9139 11.1674 12.1242 10.5264 12.5447 10.011C12.9784 9.49559 13.6356 9.12555 14.5161 8.90088L14.5358 9.11894C13.6421 8.86784 12.9784 8.48458 12.5447 7.96916C12.1242 7.45374 11.9139 6.81938 11.9139 6.06608L11.9533 4.34141C11.9533 3.86564 11.8942 3.4956 11.7759 3.23128C11.6576 2.96696 11.4605 2.7489 11.1845 2.57709C10.9085 2.40529 10.5142 2.23348 10.0017 2.06167L10.5931 0C11.2634 0.132159 11.8351 0.310573 12.3082 0.535242C12.7944 0.746697 13.1953 1.01101 13.5107 1.32819C13.8393 1.63216 14.0758 2.0022 14.2204 2.43833C14.3781 2.86123 14.457 3.35022 14.457 3.90529L14.4372 5.78855C14.4372 6.48899 14.5884 7.01762 14.8907 7.37445C15.1929 7.71806 15.6266 7.89648 16.1917 7.90969H17V10.0903H16.1523C15.5872 10.1035 15.1601 10.2819 14.8709 10.6256C14.5818 10.9692 14.4372 11.4978 14.4372 12.2115L14.457 14.0947C14.457 15.1784 14.1481 16.0242 13.5304 16.6322C12.9127 17.2533 11.9336 17.7093 10.5931 18Z"
          fill="white"/>
</svg>
