<svg width="10" height="14" viewBox="0 0 10 14" fill="none" xmlns="http://www.w3.org/2000/svg">
<path fill-rule="evenodd" clip-rule="evenodd" d="M0.292435 4.9935C0.105189 4.82941 8.21171e-07 4.60689 8.41455e-07 4.37487C8.61739e-07 4.14285 0.105189 3.92033 0.292435 3.75624L4.28761 0.256191C4.47491 0.0921512 4.72891 -4.60813e-07 4.99376 -4.3766e-07C5.2586 -4.14506e-07 5.5126 0.0921512 5.69991 0.256191L9.69508 3.75624C9.79048 3.83696 9.86657 3.93351 9.91891 4.04026C9.97126 4.14702 9.99881 4.26184 9.99996 4.37802C10.0011 4.4942 9.97584 4.60943 9.92562 4.71696C9.8754 4.8245 9.80124 4.92219 9.70746 5.00435C9.61368 5.08651 9.50216 5.15148 9.37942 5.19548C9.25667 5.23947 9.12515 5.26161 8.99253 5.2606C8.85991 5.25959 8.72885 5.23545 8.60699 5.1896C8.48513 5.14374 8.37492 5.07708 8.28279 4.9935L5.99255 2.9871L5.99255 13.125C5.99255 13.3571 5.88732 13.5796 5.70001 13.7437C5.5127 13.9078 5.25865 14 4.99376 14C4.72886 14 4.47481 13.9078 4.2875 13.7437C4.10019 13.5796 3.99496 13.3571 3.99496 13.125L3.99496 2.9871L1.70473 4.9935C1.51743 5.15754 1.26343 5.2497 0.998582 5.24969C0.733737 5.24969 0.479736 5.15754 0.292435 4.9935Z" fill="white"/>
</svg>
