<svg width="16" height="18" viewBox="0 0 16 18" fill="none" xmlns="http://www.w3.org/2000/svg">
<path d="M1 4V4C1 2.34315 2.34315 1 4 1H12C13.6569 1 15 2.34315 15 4V4" stroke="white" stroke-width="2"/>
<path fill-rule="evenodd" clip-rule="evenodd" d="M3.29243 8.9935C3.10519 8.82941 3 8.60689 3 8.37487C3 8.14285 3.10519 7.92033 3.29243 7.75624L7.28761 4.25619C7.47491 4.09215 7.72891 4 7.99376 4C8.2586 4 8.5126 4.09215 8.6999 4.25619L12.6951 7.75624C12.7905 7.83696 12.8666 7.93351 12.9189 8.04026C12.9713 8.14702 12.9988 8.26184 13 8.37802C13.0011 8.4942 12.9758 8.60943 12.9256 8.71696C12.8754 8.8245 12.8012 8.92219 12.7075 9.00435C12.6137 9.08651 12.5022 9.15148 12.3794 9.19548C12.2567 9.23947 12.1251 9.26161 11.9925 9.2606C11.8599 9.25959 11.7288 9.23545 11.607 9.1896C11.4851 9.14374 11.3749 9.07708 11.2828 8.9935L8.99255 6.9871L8.99255 17.125C8.99255 17.3571 8.88732 17.5796 8.70001 17.7437C8.5127 17.9078 8.25865 18 7.99376 18C7.72886 18 7.47481 17.9078 7.2875 17.7437C7.10019 17.5796 6.99496 17.3571 6.99496 17.125L6.99496 6.9871L4.70473 8.9935C4.51743 9.15754 4.26343 9.2497 3.99858 9.2497C3.73374 9.2497 3.47974 9.15754 3.29243 8.9935Z" fill="white"/>
</svg>
